# xmcd
#
# Track frame offsets: 
#        150
#        19687
#        39775
#        56225
#        77137
#        93937
#        109950
#        129912
#        149112
#        163112
#
# Disc length: 2489 seconds
#
# Revision: 3
# Processed by: cddbd v1.5.2PL0 Copyright (c) Steve Scherf et al.
# Submitted via: ExactAudioCopy v1.0b3
#
DISCID=8309b70a
DTITLE=林志颖 - 今年夏天
DYEAR=1992
DGENRE=Pop
TTITLE0=今年夏天
TTITLE1=野菊花
TTITLE2=用心相信
TTITLE3=舞出我們的時代
TTITLE4=尋找夢中的金銀島
TTITLE5=青春扭扭
TTITLE6=全心全意 I Love You
TTITLE7=給我一個心愛的
TTITLE8=快樂要自己追逐
TTITLE9=傷心只到這裡
EXTD=
EXTT0=
EXTT1=
EXTT2=
EXTT3=
EXTT4=
EXTT5=
EXTT6=
EXTT7=
EXTT8=
EXTT9=
PLAYORDER=
